# xmcd CD database file
#
# Track frame offsets:
#	150
#	22311
#	42762
#	57177
#	77713
#	93740
#	111244
#	128883
#	147836
#	164528
#
# Disc length: 2468 seconds
#
# Revision: 2
# Processed by: cddbd v1.5.2PL0 Copyright (c) Steve Scherf et al.
# Submitted via: jetAudio 7
#
DISCID=8b09a20a
DTITLE=LANDY 溫嵐 - 藍色雨
DYEAR=1900
DGENRE=blues
TTITLE0=藍色雨
TTITLE1=地獄天使
TTITLE2=不吵不鬧
TTITLE3=走
TTITLE4=發燙
TTITLE5=冰河
TTITLE6=潘朵拉
TTITLE7=定時炸彈
TTITLE8=你活該
TTITLE9=書籤
EXTD=
EXTT0=
EXTT1=
EXTT2=
EXTT3=
EXTT4=
EXTT5=
EXTT6=
EXTT7=
EXTT8=
EXTT9=
PLAYORDER=
